<?xml version="1.0" encoding="UTF-8" standalone="no"?>
<!-- Created with Inkscape (http://www.inkscape.org/) -->

<svg
   xmlns:dc="http://purl.org/dc/elements/1.1/"
   xmlns:cc="http://creativecommons.org/ns#"
   xmlns:rdf="http://www.w3.org/1999/02/22-rdf-syntax-ns#"
   xmlns:svg="http://www.w3.org/2000/svg"
   xmlns="http://www.w3.org/2000/svg"
   xmlns:sodipodi="http://sodipodi.sourceforge.net/DTD/sodipodi-0.dtd"
   xmlns:inkscape="http://www.inkscape.org/namespaces/inkscape"
   width="100"
   height="60.310547"
   id="svg2"
   version="1.1"
   inkscape:version="0.48.2 r9819"
   sodipodi:docname="Myspace 2012.svg">
  <defs
     id="defs4" />
  <sodipodi:namedview
     id="base"
     pagecolor="#ffffff"
     bordercolor="#666666"
     borderopacity="1.0"
     inkscape:pageopacity="0.0"
     inkscape:pageshadow="2"
     inkscape:zoom="1.4"
     inkscape:cx="231.8946"
     inkscape:cy="-1.5745055"
     inkscape:document-units="px"
     inkscape:current-layer="g3111"
     showgrid="false"
     fit-margin-left="0.1"
     fit-margin-top="0.1"
     fit-margin-bottom="0.1"
     fit-margin-right="0.1"
     inkscape:window-width="1097"
     inkscape:window-height="1038"
     inkscape:window-x="816"
     inkscape:window-y="-19"
     inkscape:window-maximized="0">
    <inkscape:grid
       type="xygrid"
       id="grid2996"
       empspacing="5"
       visible="true"
       enabled="true"
       snapvisiblegridlinesonly="true" />
  </sodipodi:namedview>
  <metadata
     id="metadata7">
    <rdf:RDF>
      <cc:Work
         rdf:about="">
        <dc:format>image/svg+xml</dc:format>
        <dc:type
           rdf:resource="http://purl.org/dc/dcmitype/StillImage" />
        <dc:title></dc:title>
      </cc:Work>
    </rdf:RDF>
  </metadata>
  <g
     inkscape:label="Layer 1"
     inkscape:groupmode="layer"
     id="layer1"
     transform="translate(-80.295825,-435.40057)">
    <g
       id="g3111"
       transform="matrix(0.69760441,0,0,0.69760441,24.311343,154.93994)">
      <g
         style="fill:#231f20;fill-opacity:1"
         transform="matrix(0.4861858,0,0,0.4861858,-17.813706,-150.40207)"
         id="g3103">
        <path
           transform="matrix(5.0666667,0,0,5.0666667,-979.42143,-3224.3268)"
           d="m 249,874.86218 c 0,4.14214 -3.35786,7.5 -7.5,7.5 -4.14214,0 -7.5,-3.35786 -7.5,-7.5 0,-4.14213 3.35786,-7.5 7.5,-7.5 4.14214,0 7.5,3.35787 7.5,7.5 z"
           sodipodi:ry="7.5"
           sodipodi:rx="7.5"
           sodipodi:cy="874.86218"
           sodipodi:cx="241.5"
           id="path3091"
           style="fill:#231f20;fill-opacity:1;fill-rule:nonzero;stroke:none"
           sodipodi:type="arc" />
        <path
           sodipodi:type="arc"
           style="fill:#231f20;fill-opacity:1;fill-rule:nonzero;stroke:none"
           id="path3093"
           sodipodi:cx="241.5"
           sodipodi:cy="874.86218"
           sodipodi:rx="7.5"
           sodipodi:ry="7.5"
           d="m 249,874.86218 c 0,4.14214 -3.35786,7.5 -7.5,7.5 -4.14214,0 -7.5,-3.35786 -7.5,-7.5 0,-4.14213 3.35786,-7.5 7.5,-7.5 4.14214,0 7.5,3.35787 7.5,7.5 z"
           transform="matrix(5.6666643,0,0,5.6666643,-1028.9994,-3760.3887)" />
        <path
           transform="matrix(6.2163148,0,0,6.2666645,-1056.3981,-4298.9078)"
           d="m 249,874.86218 c 0,4.14214 -3.35786,7.5 -7.5,7.5 -4.14214,0 -7.5,-3.35786 -7.5,-7.5 0,-4.14213 3.35786,-7.5 7.5,-7.5 4.14214,0 7.5,3.35787 7.5,7.5 z"
           sodipodi:ry="7.5"
           sodipodi:rx="7.5"
           sodipodi:cy="874.86218"
           sodipodi:cx="241.5"
           id="path3095"
           style="fill:#231f20;fill-opacity:1;fill-rule:nonzero;stroke:none"
           sodipodi:type="arc" />
        <path
           sodipodi:nodetypes="cccccccc"
           inkscape:connector-curvature="0"
           id="path3097"
           d="m 202,1308.7908 c 0,3.012 2.01643,5 4.97003,5 l 73.55644,0 c 2.9585,0 4.97003,-1.9604 4.97003,-5 l 0,-14 c 0,-23.7361 -18.90881,-43 -41.74825,-43 -25.02416,0 -41.74825,22.5598 -41.74825,43 z"
           style="fill:#231f20;fill-opacity:1;stroke:none" />
        <path
           style="fill:#231f20;fill-opacity:1;stroke:none"
           d="m 294.00699,1308.8821 c 0,2.957 1.99565,4.9087 4.91879,4.9087 l 81.65193,0 c 2.928,0 4.91879,-1.9246 4.91879,-4.9087 l 0,-15.6728 c 0,-23.3028 -18.0595,-47.1018 -46.02144,-47.1018 -23.97565,0 -45.46807,19.9347 -45.46807,47.1018 z"
           id="path3099"
           inkscape:connector-curvature="0"
           sodipodi:nodetypes="cccccccc" />
        <path
           sodipodi:nodetypes="cccccccc"
           inkscape:connector-curvature="0"
           id="path3101"
           d="m 394.25874,1308.8238 c 0,2.9921 2.00876,4.967 4.95112,4.967 l 92.09077,0 c 2.94724,0 4.95112,-1.9475 4.95112,-4.967 l 0,-18.6972 c 0,-27.6594 -21.62628,-52.0957 -50.83294,-52.0957 -24.48687,0 -51.16007,19.7278 -51.16007,52.0957 z"
           style="fill:#231f20;fill-opacity:1;stroke:none" />
      </g>
    </g>
  </g>
</svg>
